<svg xmlns="http://www.w3.org/2000/svg" viewBox="0 0 900 840" font-family="system-ui,-apple-system,BlinkMacSystemFont,'Segoe UI',sans-serif">

  <defs>
    <marker id="arr" markerWidth="7" markerHeight="5" refX="6" refY="2.5" orient="auto">
      <polygon points="0 0, 7 2.5, 0 5" fill="#4b5563"/>
    </marker>
    <linearGradient id="bg-grad" x1="0" y1="0" x2="0" y2="1">
      <stop offset="0%" stop-color="#0d1117"/>
      <stop offset="100%" stop-color="#080d1e"/>
    </linearGradient>
    <filter id="glow-teal">
      <feGaussianBlur stdDeviation="2" result="blur"/>
      <feMerge><feMergeNode in="blur"/><feMergeNode in="SourceGraphic"/></feMerge>
    </filter>
  </defs>

  <!-- Background -->
  <rect width="900" height="840" fill="url(#bg-grad)"/>

  <!-- Subtle dot grid -->
  <pattern id="dots" x="0" y="0" width="24" height="24" patternUnits="userSpaceOnUse">
    <circle cx="1" cy="1" r="0.8" fill="rgba(255,255,255,0.04)"/>
  </pattern>
  <rect width="900" height="840" fill="url(#dots)"/>

  <!-- Title bar -->
  <rect x="0" y="0" width="900" height="46" fill="rgba(255,255,255,0.03)"/>
  <line x1="0" y1="46" x2="900" y2="46" stroke="rgba(255,255,255,0.07)" stroke-width="1"/>
  <text x="450" y="29" text-anchor="middle" font-size="12" font-weight="700" fill="#e2e8f0" letter-spacing="4">NEURALCV  —  SYSTEM ARCHITECTURE</text>

  <!-- ═══════════════════════════════════════
       LAYER 1  :  USER INPUT
  ═══════════════════════════════════════ -->
  <rect x="260" y="58" width="380" height="56" rx="8" fill="rgba(245,158,11,0.10)" stroke="#f59e0b" stroke-width="1.5"/>
  <rect x="260" y="58" width="4" height="56" rx="2" fill="#f59e0b"/>
  <text x="295" y="81" font-size="8.5" font-weight="700" fill="#f59e0b" letter-spacing="2">USER INPUT</text>
  <text x="295" y="99" font-size="11" fill="#fbbf24">Upload Resume  (.pdf / .docx / .txt)  +  Job Description</text>

  <!-- Arrow USER to CLIENT -->
  <line x1="450" y1="114" x2="450" y2="138" stroke="#374151" stroke-width="1.5" marker-end="url(#arr)"/>

  <!-- ═══════════════════════════════════════
       LAYER 2  :  NEXT.JS CLIENT
  ═══════════════════════════════════════ -->
  <rect x="40" y="143" width="820" height="132" rx="10" fill="rgba(0,212,170,0.04)" stroke="#00d4aa" stroke-width="1.5" stroke-dasharray="6,3"/>
  <rect x="40" y="143" width="820" height="26" rx="10" fill="rgba(0,212,170,0.14)"/>
  <rect x="40" y="157" width="820" height="12" fill="rgba(0,212,170,0.14)"/>
  <text x="62" y="160" font-size="8.5" font-weight="700" fill="#00d4aa" letter-spacing="2">NEXT.JS 16  —  APP ROUTER  (CLIENT)</text>

  <!-- 4 client boxes  y=177 h=84 -->
  <rect x="50"  y="177" width="193" height="84" rx="6" fill="rgba(0,212,170,0.08)" stroke="rgba(0,212,170,0.35)" stroke-width="1"/>
  <text x="146" y="216" text-anchor="middle" font-size="11" font-weight="600" fill="#e2e8f0">Landing Page</text>
  <text x="146" y="233" text-anchor="middle" font-size="10" fill="#4b5563">Canvas ATS Animation</text>

  <rect x="253" y="177" width="193" height="84" rx="6" fill="rgba(0,212,170,0.08)" stroke="rgba(0,212,170,0.35)" stroke-width="1"/>
  <text x="349" y="216" text-anchor="middle" font-size="11" font-weight="600" fill="#e2e8f0">Dashboard</text>
  <text x="349" y="233" text-anchor="middle" font-size="10" fill="#4b5563">Live Agent Status</text>

  <rect x="456" y="177" width="193" height="84" rx="6" fill="rgba(0,212,170,0.08)" stroke="rgba(0,212,170,0.35)" stroke-width="1"/>
  <text x="552" y="216" text-anchor="middle" font-size="11" font-weight="600" fill="#e2e8f0">Resume Editor</text>
  <text x="552" y="233" text-anchor="middle" font-size="10" fill="#4b5563">Live Diff View</text>

  <rect x="659" y="177" width="193" height="84" rx="6" fill="rgba(0,212,170,0.08)" stroke="rgba(0,212,170,0.35)" stroke-width="1"/>
  <text x="755" y="216" text-anchor="middle" font-size="11" font-weight="600" fill="#e2e8f0">Login</text>
  <text x="755" y="233" text-anchor="middle" font-size="10" fill="#4b5563">Auth Page</text>

  <!-- Arrows CLIENT to API -->
  <line x1="200" y1="275" x2="200" y2="297" stroke="#374151" stroke-width="1.5" marker-end="url(#arr)"/>
  <line x1="450" y1="275" x2="450" y2="297" stroke="#374151" stroke-width="1.5" marker-end="url(#arr)"/>
  <line x1="700" y1="275" x2="700" y2="297" stroke="#374151" stroke-width="1.5" marker-end="url(#arr)"/>

  <!-- ═══════════════════════════════════════
       LAYER 3  :  API ROUTES
  ═══════════════════════════════════════ -->
  <rect x="40" y="302" width="820" height="162" rx="10" fill="rgba(99,102,241,0.04)" stroke="#6366f1" stroke-width="1.5" stroke-dasharray="6,3"/>
  <rect x="40" y="302" width="820" height="26" rx="10" fill="rgba(99,102,241,0.16)"/>
  <rect x="40" y="316" width="820" height="12" fill="rgba(99,102,241,0.16)"/>
  <text x="62" y="319" font-size="8.5" font-weight="700" fill="#818cf8" letter-spacing="2">API ROUTE HANDLERS  (SERVER)</text>

  <!-- Row 1  y=336 h=50 -->
  <rect x="50"  y="336" width="262" height="50" rx="6" fill="rgba(99,102,241,0.12)" stroke="rgba(99,102,241,0.45)" stroke-width="1"/>
  <text x="181" y="357" text-anchor="middle" font-size="10" font-weight="700" fill="#a5b4fc">/api/analyze</text>
  <text x="181" y="373" text-anchor="middle" font-size="10" fill="#4b5563">ATS Score + Keywords</text>

  <rect x="322" y="336" width="262" height="50" rx="6" fill="rgba(99,102,241,0.12)" stroke="rgba(99,102,241,0.45)" stroke-width="1"/>
  <text x="453" y="357" text-anchor="middle" font-size="10" font-weight="700" fill="#a5b4fc">/api/optimize-resume</text>
  <text x="453" y="373" text-anchor="middle" font-size="10" fill="#4b5563">GPT-4o Full Rewrite</text>

  <rect x="594" y="336" width="258" height="50" rx="6" fill="rgba(99,102,241,0.12)" stroke="rgba(99,102,241,0.45)" stroke-width="1"/>
  <text x="723" y="357" text-anchor="middle" font-size="10" font-weight="700" fill="#a5b4fc">/api/coverletter</text>
  <text x="723" y="373" text-anchor="middle" font-size="10" fill="#4b5563">Cover Letter Generation</text>

  <!-- Row 2  y=395 h=50 -->
  <rect x="50"  y="395" width="262" height="50" rx="6" fill="rgba(99,102,241,0.12)" stroke="rgba(99,102,241,0.45)" stroke-width="1"/>
  <text x="181" y="416" text-anchor="middle" font-size="10" font-weight="700" fill="#a5b4fc">/api/jobs</text>
  <text x="181" y="432" text-anchor="middle" font-size="10" fill="#4b5563">Live Job Matching</text>

  <rect x="322" y="395" width="262" height="50" rx="6" fill="rgba(99,102,241,0.12)" stroke="rgba(99,102,241,0.45)" stroke-width="1"/>
  <text x="453" y="416" text-anchor="middle" font-size="10" font-weight="700" fill="#a5b4fc">/api/linkedin</text>
  <text x="453" y="432" text-anchor="middle" font-size="10" fill="#4b5563">LinkedIn Profile Optimizer</text>

  <rect x="594" y="395" width="258" height="50" rx="6" fill="rgba(99,102,241,0.12)" stroke="rgba(99,102,241,0.45)" stroke-width="1"/>
  <text x="723" y="416" text-anchor="middle" font-size="10" font-weight="700" fill="#a5b4fc">/api/interview-practice</text>
  <text x="723" y="432" text-anchor="middle" font-size="10" fill="#4b5563">Interview Q Generator</text>

  <!-- Arrows API to DOC + AI -->
  <line x1="240" y1="464" x2="237" y2="486" stroke="#374151" stroke-width="1.5" marker-end="url(#arr)"/>
  <line x1="660" y1="464" x2="663" y2="486" stroke="#374151" stroke-width="1.5" marker-end="url(#arr)"/>

  <!-- ═══════════════════════════════════════
       LAYER 4a  :  DOCUMENT ENGINE
  ═══════════════════════════════════════ -->
  <rect x="40" y="491" width="395" height="175" rx="10" fill="rgba(168,85,247,0.04)" stroke="#a855f7" stroke-width="1.5" stroke-dasharray="6,3"/>
  <rect x="40" y="491" width="395" height="26" rx="10" fill="rgba(168,85,247,0.18)"/>
  <rect x="40" y="505" width="395" height="12" fill="rgba(168,85,247,0.18)"/>
  <text x="62" y="508" font-size="8.5" font-weight="700" fill="#c084fc" letter-spacing="2">DOCUMENT ENGINE</text>

  <rect x="55"  y="525" width="170" height="55" rx="6" fill="rgba(168,85,247,0.12)" stroke="rgba(168,85,247,0.45)" stroke-width="1"/>
  <text x="140" y="549" text-anchor="middle" font-size="11" font-weight="600" fill="#e2e8f0">unpdf</text>
  <text x="140" y="566" text-anchor="middle" font-size="10" fill="#4b5563">PDF Extraction</text>

  <rect x="240" y="525" width="170" height="55" rx="6" fill="rgba(168,85,247,0.12)" stroke="rgba(168,85,247,0.45)" stroke-width="1"/>
  <text x="325" y="549" text-anchor="middle" font-size="11" font-weight="600" fill="#e2e8f0">mammoth</text>
  <text x="325" y="566" text-anchor="middle" font-size="10" fill="#4b5563">DOCX Extraction</text>

  <!-- inner arrows converging -->
  <line x1="140" y1="580" x2="195" y2="598" stroke="#7c3aed" stroke-width="1" marker-end="url(#arr)"/>
  <line x1="325" y1="580" x2="270" y2="598" stroke="#7c3aed" stroke-width="1" marker-end="url(#arr)"/>

  <rect x="140" y="600" width="155" height="50" rx="6" fill="rgba(168,85,247,0.12)" stroke="rgba(168,85,247,0.45)" stroke-width="1"/>
  <text x="217" y="622" text-anchor="middle" font-size="11" font-weight="600" fill="#e2e8f0">Plain Text</text>
  <text x="217" y="638" text-anchor="middle" font-size="10" fill="#4b5563">Normalised Output</text>

  <!-- ═══════════════════════════════════════
       LAYER 4b  :  AI ENGINE
  ═══════════════════════════════════════ -->
  <rect x="465" y="491" width="395" height="175" rx="10" fill="rgba(249,115,22,0.04)" stroke="#f97316" stroke-width="1.5" stroke-dasharray="6,3"/>
  <rect x="465" y="491" width="395" height="26" rx="10" fill="rgba(249,115,22,0.18)"/>
  <rect x="465" y="505" width="395" height="12" fill="rgba(249,115,22,0.18)"/>
  <text x="487" y="508" font-size="8.5" font-weight="700" fill="#fb923c" letter-spacing="2">AI ENGINE</text>

  <rect x="480" y="525" width="365" height="55" rx="6" fill="rgba(249,115,22,0.12)" stroke="rgba(249,115,22,0.45)" stroke-width="1"/>
  <text x="662" y="549" text-anchor="middle" font-size="11" font-weight="600" fill="#e2e8f0">OpenAI GPT-4o</text>
  <text x="662" y="566" text-anchor="middle" font-size="10" fill="#4b5563">Structured JSON Output</text>

  <line x1="570" y1="580" x2="545" y2="598" stroke="#c2410c" stroke-width="1" marker-end="url(#arr)"/>
  <line x1="755" y1="580" x2="780" y2="598" stroke="#c2410c" stroke-width="1" marker-end="url(#arr)"/>

  <rect x="480" y="600" width="170" height="50" rx="6" fill="rgba(249,115,22,0.12)" stroke="rgba(249,115,22,0.45)" stroke-width="1"/>
  <text x="565" y="622" text-anchor="middle" font-size="11" font-weight="600" fill="#e2e8f0">Prompt Chains</text>
  <text x="565" y="638" text-anchor="middle" font-size="10" fill="#4b5563">Role-based Engineering</text>

  <rect x="670" y="600" width="170" height="50" rx="6" fill="rgba(249,115,22,0.12)" stroke="rgba(249,115,22,0.45)" stroke-width="1"/>
  <text x="755" y="622" text-anchor="middle" font-size="11" font-weight="600" fill="#e2e8f0">Score Calculator</text>
  <text x="755" y="638" text-anchor="middle" font-size="10" fill="#4b5563">Multi-dim Rubric</text>

  <!-- Arrows from DOC + AI converging to COMPONENTS -->
  <line x1="237" y1="666" x2="390" y2="692" stroke="#374151" stroke-width="1.5" marker-end="url(#arr)"/>
  <line x1="663" y1="666" x2="510" y2="692" stroke="#374151" stroke-width="1.5" marker-end="url(#arr)"/>

  <!-- ═══════════════════════════════════════
       LAYER 5  :  COMPONENTS
  ═══════════════════════════════════════ -->
  <rect x="40" y="697" width="820" height="124" rx="10" fill="rgba(236,72,153,0.04)" stroke="#ec4899" stroke-width="1.5" stroke-dasharray="6,3"/>
  <rect x="40" y="697" width="820" height="26" rx="10" fill="rgba(236,72,153,0.16)"/>
  <rect x="40" y="711" width="820" height="12" fill="rgba(236,72,153,0.16)"/>
  <text x="62" y="714" font-size="8.5" font-weight="700" fill="#f472b6" letter-spacing="2">REACT COMPONENT LIBRARY</text>

  <!-- Pill badges: 4 per row, 3 rows  y=727,755,783  h=22 -->
  <!-- Row width = 800, 4 pills, gap 8 -->
  <!-- pill w = (800-3*8)/4 = 194 -->

  <!-- Row 1 -->
  <rect x="50"  y="727" width="194" height="22" rx="11" fill="rgba(236,72,153,0.14)" stroke="rgba(236,72,153,0.40)" stroke-width="1"/>
  <text x="147" y="742" text-anchor="middle" font-size="10" fill="#f9a8d4">ResultsDashboard</text>

  <rect x="252" y="727" width="194" height="22" rx="11" fill="rgba(236,72,153,0.14)" stroke="rgba(236,72,153,0.40)" stroke-width="1"/>
  <text x="349" y="742" text-anchor="middle" font-size="10" fill="#f9a8d4">RadarChart</text>

  <rect x="454" y="727" width="194" height="22" rx="11" fill="rgba(236,72,153,0.14)" stroke="rgba(236,72,153,0.40)" stroke-width="1"/>
  <text x="551" y="742" text-anchor="middle" font-size="10" fill="#f9a8d4">RewriteDiff</text>

  <rect x="656" y="727" width="194" height="22" rx="11" fill="rgba(236,72,153,0.14)" stroke="rgba(236,72,153,0.40)" stroke-width="1"/>
  <text x="753" y="742" text-anchor="middle" font-size="10" fill="#f9a8d4">CareerChatbot</text>

  <!-- Row 2 -->
  <rect x="50"  y="756" width="194" height="22" rx="11" fill="rgba(236,72,153,0.10)" stroke="rgba(236,72,153,0.30)" stroke-width="1"/>
  <text x="147" y="771" text-anchor="middle" font-size="10" fill="#f9a8d4">KeywordVisualizer</text>

  <rect x="252" y="756" width="194" height="22" rx="11" fill="rgba(236,72,153,0.10)" stroke="rgba(236,72,153,0.30)" stroke-width="1"/>
  <text x="349" y="771" text-anchor="middle" font-size="10" fill="#f9a8d4">ActionPlan</text>

  <rect x="454" y="756" width="194" height="22" rx="11" fill="rgba(236,72,153,0.10)" stroke="rgba(236,72,153,0.30)" stroke-width="1"/>
  <text x="551" y="771" text-anchor="middle" font-size="10" fill="#f9a8d4">InterviewPrep</text>

  <rect x="656" y="756" width="194" height="22" rx="11" fill="rgba(236,72,153,0.10)" stroke="rgba(236,72,153,0.30)" stroke-width="1"/>
  <text x="753" y="771" text-anchor="middle" font-size="10" fill="#f9a8d4">ScoreReveal</text>

  <!-- Row 3 -->
  <rect x="50"  y="785" width="194" height="22" rx="11" fill="rgba(236,72,153,0.06)" stroke="rgba(236,72,153,0.22)" stroke-width="1"/>
  <text x="147" y="800" text-anchor="middle" font-size="10" fill="#f9a8d4">CoverLetterGen</text>

  <rect x="252" y="785" width="194" height="22" rx="11" fill="rgba(236,72,153,0.06)" stroke="rgba(236,72,153,0.22)" stroke-width="1"/>
  <text x="349" y="800" text-anchor="middle" font-size="10" fill="#f9a8d4">LinkedInOptimizer</text>

  <rect x="454" y="785" width="194" height="22" rx="11" fill="rgba(236,72,153,0.06)" stroke="rgba(236,72,153,0.22)" stroke-width="1"/>
  <text x="551" y="800" text-anchor="middle" font-size="10" fill="#f9a8d4">Counterfactual</text>

  <rect x="656" y="785" width="194" height="22" rx="11" fill="rgba(236,72,153,0.06)" stroke="rgba(236,72,153,0.22)" stroke-width="1"/>
  <text x="753" y="800" text-anchor="middle" font-size="10" fill="#f9a8d4">AgentPipeline</text>

  <!-- Result label -->
  <text x="450" y="835" text-anchor="middle" font-size="10" fill="#374151" letter-spacing="2">RESULTS  DELIVERED  TO  USER</text>

</svg>
